<svg width="26" height="41" viewBox="0 0 26 41" fill="none" xmlns="http://www.w3.org/2000/svg">
<path fill-rule="evenodd" clip-rule="evenodd" d="M4.65723 20.5529V40.0479L12.7435 37.1665L20.8291 40.0479V20.5529H4.65723Z" fill="#03A48E"/>
<path fill-rule="evenodd" clip-rule="evenodd" d="M4.65723 28.2511C7.07452 29.5182 9.82451 30.2389 12.7435 30.2389C15.6626 30.2389 18.4118 29.5182 20.8291 28.2511V20.5529H4.65723V28.2511Z" fill="#048B79"/>
<path fill-rule="evenodd" clip-rule="evenodd" d="M25.4868 12.7914C25.4868 19.8296 19.7817 25.5348 12.7434 25.5348C5.70514 25.5348 0 19.8296 0 12.7914C0 5.75312 5.70514 0.0479736 12.7434 0.0479736C19.7817 0.0479736 25.4868 5.75312 25.4868 12.7914Z" fill="#FFE082"/>
<path fill-rule="evenodd" clip-rule="evenodd" d="M12.7993 25.5351C5.76105 25.5351 0.0559082 19.8292 0.0559082 12.7917C0.0559082 5.75348 5.76105 0.0483398 12.7993 0.0483398" fill="#FFCC80"/>
<rect x="7.7168" y="8.41199" width="10.0531" height="9.23996" rx="0.752742" fill="#00BFA5"/>
<rect x="9.61353" y="7.29907" width="1.10893" height="2.22587" rx="0.554463" fill="#198A6B"/>
<rect x="14.6555" y="7.29907" width="1.10892" height="2.22587" rx="0.554462" fill="#198A6B"/>
</svg>
