<svg width="31" height="48" viewBox="0 0 31 48" fill="none" xmlns="http://www.w3.org/2000/svg">
<path fill-rule="evenodd" clip-rule="evenodd" d="M6.26733 24.5928V47.4777L15.7597 44.0953L25.2512 47.4777V24.5928H6.26733Z" fill="#E6683B"/>
<path fill-rule="evenodd" clip-rule="evenodd" d="M6.26709 33.6294C9.1047 35.1168 12.3329 35.9629 15.7595 35.9629C19.1861 35.9629 22.4133 35.1168 25.251 33.6294V24.5926H6.26709V33.6294Z" fill="#DD512C"/>
<path fill-rule="evenodd" clip-rule="evenodd" d="M30.7188 15.4816C30.7188 23.7437 24.0216 30.4409 15.7596 30.4409C7.49746 30.4409 0.800293 23.7437 0.800293 15.4816C0.800293 7.2195 7.49746 0.522339 15.7596 0.522339C24.0216 0.522339 30.7188 7.2195 30.7188 15.4816Z" fill="#FFE082"/>
<path fill-rule="evenodd" clip-rule="evenodd" d="M15.8255 30.4413C7.56338 30.4413 0.866211 23.7432 0.866211 15.482C0.866211 7.21993 7.56338 0.522766 15.8255 0.522766" fill="#FFCC80"/>
<path fill-rule="evenodd" clip-rule="evenodd" d="M15.7597 8.06012L18.0507 12.7017L23.173 13.4467L19.4659 17.06L20.3417 22.1616L15.7597 19.7524L11.1777 22.1616L12.0526 17.06L8.34546 13.4467L13.4687 12.7017L15.7597 8.06012Z" fill="#F77E53"/>
</svg>
